<svg
      xmlns="http://www.w3.org/2000/svg"
      colorInterpolationFilters="sRGB"
      version="1"
      viewBox="0 0 340 250"
      style={{ margin: "auto" }}
    >
      <rect
        width="100%"
        height="100%"
        fill="#0a0619"
        className="background"
      ></rect>
      <g fill="#12c2e9" className="basesvg">
        <path
          fill="url(#5094df05-dc91-4da9-b962-5a78f8a6da65)"
          d="M32.22 6.6V2.28H0V6.6h13.86V42h4.5V6.6zm-3 20.4c0 8.96 6.04 15.48 14.88 15.48S58.98 35.96 58.98 27 52.94 11.52 44.1 11.52 29.22 18.04 29.22 27zM44.1 38.4c-6.39 0-10.38-4.92-10.38-11.4s3.99-11.4 10.38-11.4c6.39 0 10.38 4.92 10.38 11.4S50.49 38.4 44.1 38.4zM63.06 27c0 8.96 6.04 15.48 14.88 15.48S92.82 35.96 92.82 27s-6.04-15.48-14.88-15.48S63.06 18.04 63.06 27zm14.88 11.4c-6.39 0-10.38-4.92-10.38-11.4s3.99-11.4 10.38-11.4c6.39 0 10.38 4.92 10.38 11.4s-3.99 11.4-10.38 11.4zm25.32 3.6V0h-4.5v42zm6.48-21.9c0 1.84.49 3.28 1.47 4.32 2.97 3.15 8.55 3.65 13.35 5.01 2.4.68 5.16 1.66 5.16 4.47 0 3.73-4.23 4.74-8.31 4.74-4.44 0-7.41-2.48-7.77-6.06h-4.68c.16 2.84 1.32 5.14 3.48 6.9 2.36 2 5.54 3 9.54 3 6.74 0 12.24-2.61 12.24-9 0-1.88-.49-3.36-1.47-4.44-2.94-3.24-8.47-3.78-13.35-5.1-2.38-.64-5.16-1.53-5.16-4.26 0-2.88 2.31-4.32 6.93-4.32 4.62 0 7.13 1.56 7.53 4.68h4.56c-.65-5.65-5.36-8.52-11.76-8.52-6.74 0-11.76 2.38-11.76 8.58z"
          data-gra="path-name"
          transform="translate(86.784 98.662) scale(1.24)"
          className="0"
        ></path>
      </g>
      <defs>
        <linearGradient
          id="5094df05-dc91-4da9-b962-5a78f8a6da65"
          x1="0"
          x2="0"
          y1="1"
          y2="0"
        >
          <stop offset="0%" stopColor="#12c2e9"></stop>
          <stop offset="50%" stopColor="#c471ed"></stop>
          <stop offset="100%" stopColor="#f64f59"></stop>
        </linearGradient>
        <filter
          id="42443b3f1de60f6b6fd3b6a9844b4764"
          filterUnits="objectBoundingBox"
        >
          <feColorMatrix values="0 0 0 0 0.99609375 0 0 0 0 0.99609375 0 0 0 0 0.99609375 0 0 0 1 0"></feColorMatrix>
        </filter>
      </defs>
            </svg>